<?xml version="1.0" standalone="no"?>
<!DOCTYPE svg PUBLIC "-//W3C//DTD SVG 20010904//EN"
 "http://www.w3.org/TR/2001/REC-SVG-20010904/DTD/svg10.dtd">
<svg version="1.0"
    xmlns="http://www.w3.org/2000/svg" width="512.000000pt" height="512.000000pt" viewBox="0 0 512.000000 512.000000" preserveAspectRatio="xMidYMid meet">

    <g transform="translate(0.000000,512.000000) scale(0.100000,-0.100000)" fill="#000000" stroke="none">
        <path d="M515 5008 c-190 -36 -363 -210 -404 -406 -8 -37 -11 -638 -11 -2045
0 -1741 2 -2000 15 -2056 44 -185 194 -337 382 -386 86 -23 4040 -23 4126 0
188 49 338 201 382 386 13 56 15 315 15 2056 0 1407 -3 2008 -11 2045 -42 201
-214 371 -413 407 -77 14 -4007 13 -4081 -1z m3615 -2433 l0 -876 -157 3 -158
3 -3 873 -2 872 160 0 160 0 0 -875z m-2296 820 c105 -18 184 -49 262 -103 55
-37 171 -149 163 -157 -2 -1 -55 -46 -118 -98 l-114 -94 -61 48 c-239 193
-617 115 -754 -157 -128 -254 -65 -595 138 -748 89 -67 155 -88 281 -94 151
-6 249 25 352 110 l47 40 115 -102 115 -102 -30 -38 c-68 -86 -200 -165 -338
-202 -114 -30 -325 -30 -446 0 -297 74 -531 302 -616 602 -31 107 -38 296 -15
415 32 172 102 309 219 433 131 137 286 220 473 252 80 13 235 11 327 -5z
m1191 -439 c97 -25 168 -73 215 -144 l30 -45 0 91 0 92 160 0 160 0 0 -625 0
-626 -157 3 -158 3 -5 84 c-5 81 -6 83 -20 57 -25 -49 -116 -123 -178 -146
-81 -31 -208 -37 -305 -16 -119 27 -190 67 -288 165 -93 94 -142 179 -175 301
-23 87 -23 253 0 340 60 230 236 414 444 464 74 18 213 19 277 2z"/>
        <path d="M2881 2668 c-107 -16 -190 -81 -240 -188 -23 -48 -26 -68 -26 -160 0
-95 3 -111 28 -162 36 -74 120 -151 188 -173 75 -25 197 -17 264 17 115 60
185 180 185 318 0 231 -174 383 -399 348z"/>
    </g>
</svg>
